<mxfile host="app.diagrams.net" modified="2023-10-02T12:40:42.022Z" agent="Mozilla/5.0 (Windows NT 10.0; Win64; x64) AppleWebKit/537.36 (KHTML, like Gecko) Chrome/117.0.0.0 Safari/537.36" etag="Jvks5KnNXl67mH6ThtmL" version="21.7.1" type="device">
  <diagram name="Page-1" id="5v3XiO3kEaKOIN3kH-wo">
    <mxGraphModel dx="1290" dy="725" grid="1" gridSize="10" guides="1" tooltips="1" connect="1" arrows="1" fold="1" page="1" pageScale="1" pageWidth="850" pageHeight="1100" math="0" shadow="0">
      <root>
        <mxCell id="0" />
        <mxCell id="1" parent="0" />
        <mxCell id="jIOvpUV_jGDMmfVojDAY-1" value="Host" style="rounded=0;whiteSpace=wrap;html=1;" vertex="1" parent="1">
          <mxGeometry x="90" y="60" width="280" height="160" as="geometry" />
        </mxCell>
        <mxCell id="jIOvpUV_jGDMmfVojDAY-5" value="Remote" style="rounded=0;whiteSpace=wrap;html=1;" vertex="1" parent="1">
          <mxGeometry x="480" y="60" width="320" height="160" as="geometry" />
        </mxCell>
        <mxCell id="jIOvpUV_jGDMmfVojDAY-8" value="" style="endArrow=classic;html=1;rounded=0;exitX=-0.001;exitY=0.456;exitDx=0;exitDy=0;exitPerimeter=0;entryX=1.014;entryY=0.451;entryDx=0;entryDy=0;entryPerimeter=0;" edge="1" parent="1" source="jIOvpUV_jGDMmfVojDAY-5" target="jIOvpUV_jGDMmfVojDAY-1">
          <mxGeometry width="50" height="50" relative="1" as="geometry">
            <mxPoint x="400" y="330" as="sourcePoint" />
            <mxPoint x="450" y="280" as="targetPoint" />
          </mxGeometry>
        </mxCell>
        <mxCell id="jIOvpUV_jGDMmfVojDAY-9" value="Host" style="rounded=0;whiteSpace=wrap;html=1;" vertex="1" parent="1">
          <mxGeometry x="160" y="310" width="580" height="220" as="geometry" />
        </mxCell>
        <mxCell id="jIOvpUV_jGDMmfVojDAY-10" value="Module1" style="rounded=0;whiteSpace=wrap;html=1;" vertex="1" parent="1">
          <mxGeometry x="500" y="80" width="100" height="30" as="geometry" />
        </mxCell>
        <mxCell id="jIOvpUV_jGDMmfVojDAY-11" value="Module2" style="rounded=0;whiteSpace=wrap;html=1;" vertex="1" parent="1">
          <mxGeometry x="500" y="125" width="100" height="30" as="geometry" />
        </mxCell>
        <mxCell id="jIOvpUV_jGDMmfVojDAY-13" value="Module3" style="rounded=0;whiteSpace=wrap;html=1;" vertex="1" parent="1">
          <mxGeometry x="500" y="170" width="100" height="30" as="geometry" />
        </mxCell>
        <mxCell id="jIOvpUV_jGDMmfVojDAY-14" value="" style="endArrow=classic;html=1;rounded=0;entryX=0;entryY=0.5;entryDx=0;entryDy=0;" edge="1" parent="1" target="jIOvpUV_jGDMmfVojDAY-5">
          <mxGeometry width="50" height="50" relative="1" as="geometry">
            <mxPoint x="500" y="140" as="sourcePoint" />
            <mxPoint x="550" y="90" as="targetPoint" />
          </mxGeometry>
        </mxCell>
        <mxCell id="jIOvpUV_jGDMmfVojDAY-16" value="Module2" style="rounded=0;whiteSpace=wrap;html=1;" vertex="1" parent="1">
          <mxGeometry x="600" y="410" width="100" height="30" as="geometry" />
        </mxCell>
        <mxCell id="jIOvpUV_jGDMmfVojDAY-17" value="" style="shape=flexArrow;endArrow=classic;html=1;rounded=0;" edge="1" parent="1">
          <mxGeometry width="50" height="50" relative="1" as="geometry">
            <mxPoint x="424" y="240" as="sourcePoint" />
            <mxPoint x="424" y="280" as="targetPoint" />
          </mxGeometry>
        </mxCell>
        <mxCell id="jIOvpUV_jGDMmfVojDAY-18" value="Module Federation (MicroFrontend)" style="text;html=1;align=center;verticalAlign=middle;resizable=0;points=[];autosize=1;strokeColor=none;fillColor=none;" vertex="1" parent="1">
          <mxGeometry x="310" y="20" width="210" height="30" as="geometry" />
        </mxCell>
      </root>
    </mxGraphModel>
  </diagram>
</mxfile>
